<?xml version="1.0" standalone="no"?>
<!DOCTYPE svg PUBLIC "-//W3C//DTD SVG 20010904//EN"
 "http://www.w3.org/TR/2001/REC-SVG-20010904/DTD/svg10.dtd">
<svg version="1.0" xmlns="http://www.w3.org/2000/svg"
 width="2500.000000pt" height="2500.000000pt" viewBox="0 0 2500.000000 2500.000000"
 preserveAspectRatio="xMidYMid meet">

<g transform="translate(0.000000,2500.000000) scale(0.100000,-0.100000)"
fill="#FFFFFF" stroke="none">
<path d="M12025 21864 c-93 -19 -137 -31 -180 -51 -27 -12 -58 -23 -67 -23
-10 0 -46 -13 -80 -29 -35 -16 -68 -30 -74 -32 -16 -5 -224 -236 -224 -249 0
-21 -36 -27 -85 -15 -28 8 -71 16 -95 19 -25 3 -83 12 -130 21 -102 18 -167
19 -280 4 -56 -8 -92 -18 -106 -30 -11 -11 -28 -19 -38 -19 -10 0 -66 -28
-125 -62 -96 -58 -180 -130 -275 -239 -10 -12 -29 -19 -50 -19 -19 0 -38 -4
-41 -10 -3 -5 -27 -19 -52 -30 -73 -32 -109 -65 -183 -165 -49 -67 -76 -94
-97 -100 -15 -3 -53 -23 -83 -44 -30 -20 -63 -40 -72 -44 -38 -14 -98 -207
-98 -319 0 -36 -5 -89 -12 -117 -11 -47 -16 -54 -74 -91 -69 -46 -177 -157
-203 -210 -10 -19 -26 -62 -35 -95 -10 -33 -25 -78 -32 -100 -22 -64 -18 -147
8 -180 12 -15 25 -51 29 -79 5 -28 11 -61 15 -73 6 -20 3 -23 -23 -23 -62 0
-236 -149 -299 -255 -188 -321 -211 -569 -78 -849 41 -86 104 -166 162 -204
23 -15 54 -45 68 -65 14 -22 36 -39 52 -43 29 -6 30 -6 147 -68 l80 -43 3
-466 c1 -257 -1 -467 -6 -467 -4 0 -12 4 -18 10 -17 17 -142 59 -207 70 -84
13 -131 -1 -241 -74 -93 -60 -223 -189 -264 -258 -14 -23 -31 -50 -38 -58 -6
-8 -24 -49 -37 -91 -25 -74 -26 -80 -18 -235 7 -126 13 -171 31 -219 12 -33
28 -67 35 -75 7 -8 24 -38 38 -65 50 -100 254 -325 294 -325 11 0 48 -14 82
-30 91 -44 134 -48 223 -17 40 13 92 28 116 32 37 6 42 4 42 -12 0 -236 50
-610 106 -796 13 -43 24 -92 24 -108 0 -17 9 -51 21 -76 11 -25 23 -62 26 -82
3 -20 13 -45 23 -56 10 -11 20 -32 24 -47 5 -23 3 -28 -12 -28 -16 0 -52 -10
-182 -52 -49 -16 -164 -86 -217 -132 -48 -42 -107 -148 -118 -212 -4 -21 -12
-55 -18 -74 -17 -52 -9 -198 12 -235 10 -17 21 -44 25 -60 4 -17 36 -79 71
-140 95 -167 112 -204 131 -293 15 -71 16 -91 5 -154 -21 -121 -70 -277 -122
-391 -27 -59 -52 -119 -55 -135 -4 -15 -25 -65 -47 -112 -21 -47 -54 -125 -73
-175 -19 -49 -39 -94 -43 -100 -5 -5 -11 -23 -15 -40 -4 -16 -18 -55 -31 -85
-12 -30 -28 -86 -34 -125 -7 -38 -16 -90 -21 -115 -37 -187 -45 -273 -45 -480
l1 -215 32 -73 c38 -88 92 -155 182 -227 117 -94 233 -139 380 -150 123 -8
384 13 439 37 24 10 46 16 49 14 2 -3 -14 -70 -36 -148 -160 -556 -220 -938
-192 -1215 11 -103 18 -135 37 -164 21 -31 23 -44 18 -90 -4 -30 -13 -74 -21
-99 -7 -25 -13 -76 -12 -115 0 -38 -7 -153 -16 -255 -63 -717 -71 -1414 -21
-1911 56 -563 164 -938 341 -1184 49 -69 304 -320 355 -350 25 -15 46 -45 86
-120 61 -118 103 -160 227 -225 74 -39 89 -51 106 -87 11 -24 20 -50 20 -58 0
-9 11 -33 25 -55 14 -22 25 -49 25 -60 0 -50 25 -117 55 -150 66 -71 183 -401
209 -590 22 -159 22 -247 3 -292 -18 -39 -197 -213 -285 -276 -61 -44 -90 -95
-99 -175 -5 -52 -3 -60 18 -83 52 -56 66 -58 319 -62 260 -4 376 9 680 78 52
12 124 28 160 36 90 19 204 78 239 123 22 28 30 51 35 103 9 90 5 97 -115 268
-15 21 -16 34 -8 85 5 33 13 76 19 95 5 19 21 100 35 180 14 80 30 168 35 195
22 117 58 524 75 850 5 81 7 91 31 110 24 19 27 31 39 140 19 171 82 647 105
795 11 69 20 133 20 143 0 40 20 11 50 -75 53 -154 148 -376 216 -506 221
-424 501 -668 756 -662 207 4 201 5 253 -22 83 -44 111 -103 146 -302 25 -142
32 -425 12 -491 -6 -22 -21 -103 -33 -180 -11 -77 -34 -192 -49 -255 -48 -191
-54 -236 -43 -333 11 -102 18 -112 106 -161 53 -29 76 -36 169 -45 92 -9 113
-8 137 4 16 8 37 15 47 15 10 0 36 9 58 20 22 11 54 20 71 20 20 0 53 15 93
41 106 71 331 179 373 179 33 0 46 9 121 83 46 45 100 110 120 143 33 54 37
69 37 125 -1 103 -14 147 -53 187 -33 32 -41 35 -111 40 -70 4 -79 3 -117 -22
-22 -15 -42 -26 -44 -24 -5 5 120 266 137 286 8 9 27 51 43 92 16 41 41 98 56
125 15 28 43 104 63 170 63 214 74 248 115 365 27 75 49 121 63 132 13 9 30
23 39 31 9 8 28 63 43 123 15 61 30 114 34 120 4 6 27 24 52 41 148 100 224
263 224 478 -1 169 -47 348 -150 582 -203 459 -374 961 -463 1355 -52 234 -73
404 -75 598 l-1 175 38 109 c51 149 65 263 48 404 -7 59 -14 114 -14 123 -1
10 19 31 47 50 56 38 110 111 128 172 32 108 5 280 -68 434 -40 83 -40 78 11
149 83 114 178 213 265 276 319 228 568 497 689 743 72 145 95 236 95 370 0
143 -20 209 -129 426 -228 459 -546 876 -952 1251 -162 150 -188 178 -162 178
26 0 100 44 163 97 37 32 79 65 93 74 13 9 32 27 41 39 9 13 39 47 66 77 27
29 54 62 60 72 6 11 29 47 51 81 135 209 155 242 155 262 0 7 21 44 46 83 24
38 48 80 51 94 3 14 12 36 19 50 8 14 14 32 14 39 0 7 8 29 19 50 10 20 21 58
24 85 4 26 13 57 21 70 12 19 17 39 33 121 2 11 10 27 18 36 8 9 20 54 26 99
5 46 23 138 39 205 31 131 45 242 56 461 4 77 9 154 11 170 4 28 5 60 4 175
-1 294 0 300 23 300 11 0 44 -8 71 -18 44 -16 66 -18 173 -11 146 10 135 4
301 171 167 169 206 219 255 321 59 125 75 186 75 289 0 80 -2 90 -29 127 -16
22 -32 53 -36 68 -13 63 -50 131 -99 188 -29 33 -58 70 -64 83 -6 12 -20 22
-31 22 -10 0 -22 4 -25 10 -3 5 -29 25 -58 44 -63 42 -175 68 -280 65 -76 -2
-201 -42 -242 -79 -36 -31 -43 -31 -59 1 -11 22 -16 60 -16 119 0 70 -4 91
-19 108 -13 16 -20 45 -24 114 -4 51 -13 156 -21 233 -21 190 -23 175 22 175
81 0 248 68 339 138 39 29 110 134 119 175 5 23 16 33 54 49 35 15 64 38 103
85 68 81 93 153 84 247 -6 68 -37 143 -62 153 -22 8 -18 25 15 57 31 30 48 63
115 218 l38 88 -6 156 c-4 112 -9 160 -19 172 -8 9 -24 41 -36 69 -27 67 -69
123 -93 123 -10 0 -35 16 -54 36 -27 27 -43 35 -61 31 -31 -6 -31 12 1 81 41
88 56 184 41 269 -18 99 -57 171 -136 247 -70 68 -132 96 -212 96 l-38 0 0 95
c0 137 -21 192 -102 270 -93 89 -244 159 -324 152 -28 -3 -98 81 -121 146 -23
65 -135 172 -226 217 l-66 32 -141 -11 c-146 -12 -205 -28 -318 -85 l-52 -26
-11 27 c-28 76 -57 118 -130 190 -96 94 -136 119 -209 133 -30 6 -69 17 -86
25 -39 17 -268 32 -286 18 -7 -5 -33 -15 -58 -22 -25 -7 -52 -17 -60 -21 -8
-5 -34 -19 -57 -30 l-43 -22 -31 27 c-67 56 -180 98 -294 111 -65 6 -193 -8
-265 -30 -25 -8 -65 -17 -89 -19 -38 -5 -47 -2 -70 23 -14 16 -51 39 -81 52
-49 20 -72 22 -195 22 -131 0 -146 -2 -238 -32 -97 -33 -97 -33 -122 -14 -14
11 -42 23 -62 27 -20 4 -54 15 -75 26 -29 15 -57 19 -125 18 -48 -1 -97 -3
-108 -5z m1785 -2559 c311 -75 675 -163 810 -196 135 -33 255 -62 268 -64 13
-3 22 -13 22 -23 0 -10 4 -22 9 -27 10 -12 27 -98 46 -237 24 -177 73 -497 98
-653 14 -82 35 -214 48 -291 l22 -142 93 -37 c106 -42 173 -83 294 -180 121
-97 208 -184 219 -220 15 -48 26 -378 26 -780 1 -203 7 -460 14 -570 13 -213
2 -661 -20 -795 -23 -140 -111 -473 -168 -635 -64 -178 -163 -367 -310 -590
-72 -109 -248 -290 -349 -359 -115 -79 -383 -183 -567 -221 -44 -9 -107 -22
-140 -30 -33 -7 -109 -20 -170 -29 -60 -9 -139 -23 -175 -31 -90 -20 -297 -36
-900 -70 -336 -19 -548 -18 -745 1 -82 8 -197 19 -255 24 -58 5 -156 16 -218
24 -62 9 -116 15 -120 14 -25 -8 -247 35 -432 83 -181 47 -416 137 -503 193
-29 18 -64 35 -78 39 -28 7 -274 210 -382 316 -83 81 -185 221 -278 383 -97
170 -133 249 -165 359 -15 52 -35 113 -45 135 -35 82 -112 444 -124 579 -2 33
-10 96 -15 140 -6 44 -13 184 -16 310 -3 127 -8 309 -11 405 -5 146 -3 189 11
253 14 60 16 96 10 155 -4 42 -7 99 -6 126 1 27 -4 56 -11 64 -10 12 3 28 73
91 47 42 123 114 170 161 47 47 126 119 175 160 139 115 253 221 280 260 21
31 25 48 25 111 0 40 11 263 25 494 45 768 48 791 105 907 55 111 94 139 232
163 46 8 135 28 198 45 63 16 189 48 280 70 91 23 302 75 470 116 168 41 331
82 363 91 31 9 60 13 64 10 10 -11 -16 -86 -64 -182 -53 -104 -96 -171 -203
-310 -42 -55 -104 -141 -137 -191 -34 -49 -84 -116 -113 -147 -29 -32 -50 -61
-46 -64 3 -3 25 -1 48 6 199 60 464 259 733 552 69 75 135 145 147 155 21 19
21 19 15 -1 -3 -11 -13 -45 -22 -75 -27 -95 -57 -384 -49 -485 9 -121 15 -135
57 -135 32 0 40 7 109 103 99 135 171 258 229 392 26 60 52 111 57 113 10 3
19 -28 51 -168 11 -47 36 -121 56 -165 33 -74 97 -165 114 -165 5 0 11 21 14
48 3 26 21 162 40 302 20 140 39 280 42 310 11 92 24 130 48 140 27 10 -36 24
627 -135z m2544 -2075 c53 -12 146 -72 203 -132 40 -42 100 -167 113 -237 33
-174 -16 -280 -240 -522 -69 -74 -104 -104 -160 -133 -67 -36 -74 -37 -138
-31 -84 8 -115 20 -173 64 -26 20 -55 41 -65 47 -18 10 -19 26 -16 240 4 268
-1 257 115 268 81 7 121 -5 136 -44 6 -14 15 -110 20 -215 8 -154 13 -192 26
-201 20 -15 53 -7 58 15 9 34 7 181 -4 295 -14 150 -15 150 107 147 96 -2 104
2 104 55 0 26 -5 33 -25 38 -25 6 -372 -1 -452 -9 -36 -4 -47 0 -74 25 -31 28
-32 29 -16 54 10 14 17 32 17 41 0 24 47 92 96 140 64 61 136 97 214 105 68 7
75 7 154 -10z m-7068 -344 c56 -26 116 -89 148 -156 12 -25 26 -52 31 -60 18
-28 34 -105 35 -168 0 -58 -2 -63 -25 -72 -26 -10 -47 -8 -160 15 -192 39
-226 45 -297 51 -70 6 -77 5 -87 -14 -6 -11 -11 -25 -11 -29 0 -23 31 -46 71
-54 117 -22 169 -35 178 -44 5 -5 11 -41 14 -80 5 -91 50 -218 84 -240 44 -29
68 15 43 80 -17 44 -32 207 -20 219 14 14 182 8 198 -8 8 -8 13 -54 15 -144
l2 -132 -33 -31 c-18 -17 -46 -56 -62 -87 -97 -188 -328 -173 -498 31 -108
130 -172 311 -172 486 0 76 4 94 28 140 42 81 105 167 132 184 14 9 39 28 55
44 92 89 228 117 331 69z m459 -2586 c3 -5 19 -10 34 -10 23 0 32 -7 46 -37 9
-21 23 -50 30 -65 8 -17 9 -30 3 -36 -16 -16 -5 -47 17 -47 11 0 29 -16 44
-42 85 -139 116 -184 161 -238 27 -33 75 -91 106 -130 63 -78 102 -115 122
-115 8 0 38 -19 67 -42 61 -47 65 -59 84 -228 50 -430 -7 -831 -161 -1120 -79
-150 -163 -255 -355 -445 -68 -66 -123 -126 -123 -133 0 -28 60 -10 146 44 49
31 98 65 110 75 11 11 23 19 27 19 10 0 44 -124 68 -250 15 -80 23 -155 23
-245 1 -125 0 -132 -24 -164 -90 -118 -137 -149 -207 -138 -27 5 -44 0 -76
-21 -55 -35 -157 -76 -229 -92 -76 -17 -242 -9 -286 14 -21 11 -41 14 -55 10
-33 -12 -55 -6 -130 34 -95 49 -169 127 -191 200 -24 78 -18 484 7 577 9 33
27 105 40 160 36 147 63 241 96 325 49 127 179 418 241 545 70 140 108 281
117 427 11 179 -50 366 -165 511 -84 106 -98 153 -84 285 21 204 100 298 302
363 60 19 185 25 195 9z m970 -1019 c52 -10 153 -62 184 -95 20 -21 34 -26 73
-26 28 0 65 -8 86 -19 73 -36 257 -87 415 -112 63 -11 70 -14 117 -66 51 -56
60 -73 37 -73 -8 0 -42 -14 -77 -31 -36 -17 -80 -33 -100 -36 -19 -4 -72 -23
-118 -45 -45 -21 -89 -38 -96 -38 -15 0 -500 -244 -605 -304 -35 -20 -65 -35
-67 -34 -1 2 6 34 16 71 44 158 55 269 55 555 0 268 0 273 20 267 11 -4 38
-10 60 -14z m4044 -83 c102 -62 437 -377 593 -558 92 -106 157 -195 150 -201
-4 -3 -63 -25 -132 -48 -233 -79 -351 -144 -548 -300 -78 -61 -148 -145 -233
-273 -13 -21 -26 -38 -29 -38 -3 1 -30 38 -61 85 -49 73 -54 84 -38 88 29 8
24 37 -6 37 -17 0 -25 -6 -25 -17 0 -14 -3 -13 -20 5 -24 25 -38 28 -46 8 -5
-13 113 -243 158 -308 18 -26 18 -28 -1 -59 -31 -50 -10 -79 27 -38 l20 20 19
-33 c11 -18 32 -54 46 -79 l27 -47 -63 -90 c-34 -50 -102 -139 -150 -199 -164
-202 -274 -391 -370 -638 -88 -227 -107 -296 -119 -438 -9 -108 -9 -140 5
-210 22 -109 82 -256 142 -348 43 -64 63 -83 140 -134 128 -84 209 -107 395
-113 87 -2 148 -8 152 -15 8 -14 -9 -57 -34 -84 -20 -22 -116 -56 -205 -72
-56 -11 -437 -13 -873 -7 -312 5 -481 -5 -625 -38 -88 -20 -505 -129 -688
-180 -87 -25 -177 -47 -200 -51 -23 -3 -98 -21 -167 -40 -89 -24 -174 -38
-295 -50 -93 -9 -199 -21 -235 -27 -104 -17 -494 8 -538 36 -5 3 -40 10 -78
16 -210 32 -543 182 -671 301 -28 27 -67 56 -87 66 -25 12 -61 51 -119 127
l-82 111 1 190 c2 194 10 262 64 519 24 116 90 375 126 496 84 278 79 266 140
331 47 51 66 90 90 183 8 34 41 108 72 166 64 120 255 409 387 584 50 66 95
126 100 135 56 87 113 171 132 194 13 16 23 35 23 43 0 33 -34 8 -113 -83 -47
-54 -99 -111 -117 -128 -17 -16 -64 -70 -103 -120 -39 -49 -102 -126 -140
-170 -38 -44 -106 -133 -150 -198 -45 -65 -83 -115 -84 -110 -1 4 -15 73 -32
153 -16 80 -40 179 -53 220 l-24 75 50 62 c28 33 67 85 86 115 48 74 174 177
384 312 82 53 263 156 274 156 3 0 49 21 102 47 52 25 127 59 165 75 39 16 86
40 105 53 41 28 304 142 339 147 19 2 30 -5 47 -32 30 -49 73 -90 93 -90 10 0
30 19 47 42 51 72 96 110 179 149 117 54 220 86 303 94 l73 7 -34 -53 c-50
-78 -183 -337 -224 -432 -68 -161 -103 -257 -103 -281 0 -39 33 -50 170 -58
69 -4 137 -9 153 -12 15 -2 31 -4 36 -5 6 0 11 -18 13 -38 3 -33 6 -38 27 -38
22 0 26 7 42 80 42 191 196 543 322 734 l62 94 59 -64 c122 -133 221 -330 208
-417 -3 -25 -1 -32 12 -32 26 0 129 60 229 132 200 145 298 209 393 256 254
127 339 163 469 202 184 56 185 56 185 80 0 13 7 20 19 20 10 0 24 7 31 15 6
7 33 17 58 21 26 4 63 13 82 20 47 17 48 17 89 -8z m-724 -148 c-33 -16 -123
-59 -200 -95 -132 -63 -323 -173 -497 -285 l-77 -49 -25 55 c-30 65 -146 247
-184 287 l-26 27 41 0 c23 0 72 6 110 14 83 18 500 56 718 65 88 4 169 8 180
9 11 0 -7 -12 -40 -28z m-2072 -52 l138 -12 -38 -19 c-50 -26 -167 -120 -195
-157 -12 -17 -25 -30 -28 -30 -15 0 -29 51 -23 84 5 32 3 37 -23 46 -35 14
-83 68 -84 94 0 17 6 18 58 13 31 -4 119 -12 195 -19z m857 -12 c0 -2 -18 -34
-40 -70 -55 -91 -249 -483 -285 -577 l-30 -77 -124 -1 c-68 -1 -128 -4 -132
-7 -45 -28 65 207 297 631 47 88 56 94 149 98 44 1 99 4 123 5 23 1 42 0 42
-2z m-3560 -359 c-12 -31 -26 -59 -31 -62 -15 -10 -10 15 10 54 11 20 22 45
25 55 4 10 9 17 12 14 2 -3 -5 -31 -16 -61z m6307 -308 c62 -23 162 -160 299
-410 159 -292 191 -422 145 -601 -26 -99 -60 -166 -126 -243 -29 -35 -59 -74
-66 -86 -6 -13 -16 -28 -21 -33 -4 -6 -46 -58 -93 -116 -88 -111 -210 -222
-361 -331 -156 -112 -319 -289 -384 -419 -51 -102 -48 -164 10 -225 38 -39 80
-166 80 -240 0 -53 -2 -58 -45 -99 -33 -33 -69 -53 -142 -81 -87 -34 -109 -39
-214 -43 -126 -5 -220 10 -306 50 -46 21 -153 113 -153 132 0 6 -15 30 -33 52
-35 45 -57 92 -76 164 -36 137 -38 184 -16 346 13 90 20 113 40 134 18 19 25
37 25 67 0 38 49 175 71 197 5 6 9 18 9 27 0 9 33 84 74 165 112 227 247 426
443 651 35 40 63 75 63 77 0 2 -9 2 -20 -1 -13 -4 -20 0 -20 9 0 8 -22 47 -50
87 -71 103 -83 132 -70 165 23 62 151 226 175 226 8 0 19 8 24 19 14 26 150
125 223 162 22 11 63 36 89 55 57 40 182 93 300 128 100 30 91 29 126 15z
m-690 -3241 c7 -112 -12 -222 -57 -326 -55 -130 -52 -379 11 -750 70 -416 240
-944 499 -1551 90 -213 126 -326 142 -458 26 -206 -49 -375 -197 -445 l-50
-23 -33 -125 c-23 -91 -38 -130 -55 -144 -35 -30 -201 -104 -328 -147 -358
-120 -795 -145 -990 -55 -115 53 -227 70 -297 45 -41 -14 -114 1 -201 43 -50
24 -90 55 -167 132 -122 123 -198 236 -304 451 -118 239 -144 309 -318 855
-22 69 -58 173 -79 232 -40 114 -43 117 -100 102 -29 -8 -29 -16 2 -143 l25
-104 -20 -101 c-43 -218 -90 -514 -125 -776 -20 -151 -41 -304 -47 -340 -5
-36 -13 -92 -18 -126 -11 -90 -48 -147 -132 -201 -138 -89 -339 -173 -503
-209 -111 -24 -313 -29 -421 -10 -143 25 -253 63 -287 99 -22 23 -37 31 -57
29 -42 -5 -94 55 -169 190 -76 140 -145 229 -186 241 -64 19 -103 44 -165 108
-298 303 -442 1125 -401 2299 18 502 69 1147 96 1190 11 18 94 -35 185 -117
13 -12 38 -25 55 -28 16 -4 110 -47 207 -96 97 -49 186 -89 196 -89 11 0 44
-9 74 -19 63 -22 198 -54 323 -77 50 -8 104 -19 120 -24 17 -5 77 -12 135 -16
174 -11 448 27 1000 137 30 6 117 29 194 50 76 21 151 39 167 39 16 0 52 9 81
19 353 126 441 138 1083 146 231 2 472 9 535 15 63 6 174 13 245 16 73 4 141
12 155 19 14 7 54 44 90 82 36 38 69 66 73 62 5 -3 11 -49 14 -101z m-4509
-3747 c34 -18 69 -57 59 -67 -4 -4 -107 74 -107 82 0 7 10 4 48 -15z m4660
-344 c2 -34 -3 -70 -11 -89 -8 -18 -25 -73 -36 -123 -23 -94 -31 -118 -101
-300 -77 -198 -147 -336 -287 -559 -24 -38 -43 -78 -43 -88 0 -57 165 -30 292
47 66 41 92 44 113 11 14 -20 15 -34 6 -79 -21 -117 -42 -141 -186 -218 -465
-247 -610 -305 -727 -295 -121 11 -147 31 -148 114 0 38 8 71 29 115 16 34 32
83 35 109 4 25 13 52 21 58 7 6 17 26 20 43 4 18 13 42 21 54 18 28 30 111 45
310 12 154 12 171 -9 305 -22 143 -64 385 -77 444 l-7 31 229 6 c202 5 245 9
373 36 128 26 358 97 400 122 33 19 45 6 48 -54z m-2934 -174 c5 -118 4 -205
-3 -233 -5 -24 -7 -71 -4 -105 7 -82 -19 -299 -73 -609 -31 -173 -44 -270 -39
-294 7 -36 40 -88 84 -130 19 -19 23 -30 18 -63 -7 -51 -28 -83 -78 -116 -34
-22 -111 -47 -180 -57 -8 -1 -28 -7 -45 -14 -27 -10 -93 -24 -269 -57 -125
-23 -297 -36 -439 -33 -118 3 -140 6 -150 20 -14 23 13 60 90 118 32 25 97 83
144 130 121 121 140 184 121 415 -23 282 -32 347 -55 417 -47 145 -147 412
-186 501 -22 50 -38 92 -36 94 2 2 24 -1 50 -7 199 -44 454 -27 674 47 100 33
234 92 297 131 28 17 55 31 61 31 8 1 14 -58 18 -186z m-1151 -158 c41 -79 88
-205 78 -205 -9 0 -53 49 -67 75 -7 12 -11 40 -11 63 0 24 -6 49 -15 59 -22
26 -38 59 -38 79 0 26 13 9 53 -71z"/>
<path d="M11385 18336 c-164 -52 -294 -161 -504 -420 -109 -135 -181 -277
-181 -357 0 -40 36 -74 98 -94 114 -36 184 3 429 239 161 155 239 253 290 362
43 95 48 126 26 189 -14 39 -26 54 -58 72 -46 26 -46 26 -100 9z"/>
<path d="M13743 18249 c-78 -30 -96 -58 -90 -141 5 -82 29 -125 123 -227 79
-85 138 -130 249 -191 44 -24 107 -60 141 -81 191 -116 336 -170 400 -149 43
14 90 53 109 91 21 40 19 118 -4 153 -41 63 -255 236 -461 373 -159 106 -189
122 -295 156 -117 38 -116 37 -172 16z"/>
<path d="M11300 17330 c-57 -10 -171 -45 -208 -64 -34 -17 -83 -70 -183 -196
-90 -113 -134 -190 -155 -269 -16 -64 -11 -86 28 -135 l24 -28 349 36 c193 21
475 50 627 67 152 16 305 29 339 27 88 -4 95 11 49 100 -42 80 -198 243 -305
317 -75 51 -194 103 -309 135 -73 21 -172 24 -256 10z m230 -103 c47 -13 94
-29 105 -35 11 -6 49 -25 85 -42 82 -37 155 -91 237 -172 64 -63 120 -135 112
-143 -3 -2 -63 -9 -134 -15 -72 -6 -142 -13 -157 -16 -23 -5 -27 -3 -22 10 3
9 10 16 14 16 14 0 30 61 30 115 0 45 -4 55 -32 82 -42 39 -67 47 -116 34 -61
-17 -86 -51 -84 -114 1 -62 15 -103 43 -133 l20 -21 -123 -12 c-68 -7 -186
-19 -263 -26 -257 -26 -376 -35 -386 -30 -33 21 12 142 93 246 100 128 142
179 148 179 4 0 26 13 51 29 40 26 71 36 184 60 67 15 106 12 195 -12z"/>
<path d="M14080 17290 c-19 -6 -62 -18 -95 -27 -33 -9 -81 -27 -107 -40 -26
-13 -54 -23 -63 -23 -46 0 -313 -205 -403 -309 -55 -65 -86 -135 -71 -163 9
-17 17 -19 47 -14 38 5 198 14 747 41 171 8 364 18 430 21 66 3 128 10 138 16
20 10 19 28 -4 38 -8 4 -22 11 -33 16 -11 6 -28 37 -41 74 -29 87 -71 166
-112 215 -38 45 -130 117 -183 142 -41 19 -197 27 -250 13z m200 -84 c48 -17
139 -85 173 -130 37 -48 97 -176 100 -212 l2 -29 -70 -2 c-147 -5 -805 -34
-917 -40 -92 -5 -118 -3 -118 7 0 7 44 55 98 108 102 99 226 190 327 238 134
63 320 91 405 60z"/>
<path d="M14251 17117 c-13 -6 -33 -24 -44 -39 -18 -24 -18 -32 -8 -90 22
-131 120 -158 208 -58 46 51 42 124 -9 172 -24 22 -39 28 -77 28 -25 0 -57 -6
-70 -13z"/>
<path d="M12567 16188 c-39 -51 -86 -153 -97 -208 -11 -57 -5 -99 22 -152 24
-49 55 -68 122 -75 47 -5 61 -2 101 21 50 29 68 60 53 89 -12 24 -35 21 -70
-8 -29 -25 -77 -33 -113 -19 -24 10 -45 58 -45 104 0 42 42 146 80 200 46 65
-5 111 -53 48z"/>
<path d="M14555 15971 c-107 -14 -228 -106 -347 -267 -137 -183 -311 -341
-456 -416 -139 -71 -269 -121 -409 -159 -194 -51 -235 -60 -333 -74 -58 -8
-136 -18 -175 -24 -229 -33 -361 -44 -413 -32 -29 6 -68 11 -87 11 -40 0 -237
46 -280 65 -16 8 -67 28 -112 45 -45 17 -120 54 -167 83 -100 61 -338 276
-391 352 -37 54 -193 187 -240 205 -15 6 -57 13 -94 16 -79 8 -124 -4 -191
-49 -129 -86 -189 -161 -240 -297 -23 -60 -25 -78 -24 -225 1 -169 6 -201 55
-330 55 -145 115 -252 194 -342 25 -28 45 -54 45 -58 0 -10 285 -284 390 -375
104 -90 151 -124 313 -223 131 -82 220 -127 247 -127 11 0 80 -15 152 -34 295
-75 249 -70 633 -68 460 3 595 13 782 56 81 19 180 46 218 61 39 15 102 38
140 52 112 39 315 140 375 186 30 23 96 71 146 107 168 120 194 142 259 217
36 40 95 120 131 176 37 56 95 145 130 197 35 52 76 128 93 168 16 40 47 103
69 140 22 37 48 94 57 127 10 33 21 70 26 83 14 36 10 210 -6 287 -21 99 -82
218 -150 295 -127 141 -139 151 -207 166 -35 7 -67 13 -73 12 -5 0 -32 -4 -60
-7z m150 -140 c79 -45 80 -47 51 -138 -14 -43 -28 -91 -32 -108 -12 -59 -38
-121 -74 -175 -20 -30 -39 -63 -43 -72 -13 -36 -50 -20 -99 40 -26 32 -81 93
-122 137 -49 50 -76 86 -76 101 0 26 183 211 228 231 48 22 112 15 167 -16z
m-3583 -158 c58 -22 100 -54 118 -89 27 -54 84 -149 117 -193 41 -55 38 -67
-36 -146 -32 -33 -66 -73 -76 -90 -11 -16 -39 -52 -62 -79 -24 -26 -43 -52
-43 -57 0 -4 -9 -13 -21 -19 -32 -18 -50 5 -140 183 -97 192 -129 278 -129
343 0 62 17 87 83 122 90 47 123 51 189 25z m3764 -45 c39 -76 56 -145 61
-261 7 -131 -7 -201 -60 -314 -25 -55 -32 -63 -56 -63 -22 0 -42 16 -97 81
-102 119 -110 139 -75 187 69 98 191 348 191 392 0 21 20 9 36 -22z m-619
-123 c11 -8 41 -45 66 -82 25 -38 73 -95 106 -127 34 -32 61 -66 61 -74 0 -32
-46 -84 -188 -213 -254 -228 -378 -320 -415 -306 -8 3 -37 54 -66 114 -29 59
-70 143 -92 187 -22 43 -39 87 -37 98 2 13 23 28 65 47 34 15 70 34 80 43 10
8 47 32 83 54 70 41 243 202 266 246 16 31 39 35 71 13z m-3498 -85 c10 -5 22
-26 26 -46 3 -20 19 -64 35 -98 16 -33 47 -101 69 -150 23 -49 55 -108 71
-132 35 -53 56 -116 44 -135 -5 -8 -31 -43 -58 -77 -72 -91 -86 -87 -152 45
-69 135 -97 276 -92 459 2 97 6 127 18 134 19 12 18 12 39 0z m726 -180 c12
-19 154 -119 191 -135 21 -9 53 -27 72 -42 l34 -25 -7 -72 c-4 -39 -13 -83
-21 -97 -7 -15 -32 -84 -54 -155 -54 -170 -59 -178 -97 -182 -33 -3 -163 62
-193 97 -8 9 -46 41 -84 70 -105 81 -181 175 -169 210 3 9 21 32 38 51 18 19
44 51 57 71 31 46 91 120 144 176 40 41 76 55 89 33z m3125 -175 c8 -17 38
-53 66 -81 62 -61 88 -107 81 -143 -5 -25 -75 -148 -132 -231 -73 -107 -285
-328 -354 -370 -23 -14 -58 -35 -77 -47 -53 -35 -78 -30 -112 20 -16 23 -35
60 -42 82 -7 22 -30 76 -51 120 -21 44 -41 92 -45 108 -10 42 12 83 54 100 21
8 57 33 82 54 25 22 81 66 125 99 44 32 139 118 210 191 143 145 166 156 195
98z m-1011 -22 c6 -16 29 -59 51 -98 22 -38 40 -77 40 -85 0 -8 19 -52 41 -99
23 -46 42 -97 43 -113 1 -29 -3 -31 -79 -57 -44 -15 -105 -40 -136 -54 -71
-34 -240 -83 -337 -98 -72 -10 -77 -10 -93 9 -9 12 -18 48 -22 89 -3 37 -13
137 -22 221 -22 213 -27 206 170 246 44 9 123 27 175 40 132 33 155 33 169 -1z
m-1442 -123 c12 0 33 -14 48 -32 l28 -33 -7 -220 c-8 -236 -11 -251 -60 -240
-12 3 -74 12 -140 20 -65 8 -123 18 -130 23 -6 4 -42 16 -81 27 -64 18 -70 22
-73 49 -2 15 6 47 17 70 11 22 32 86 46 141 14 55 37 124 50 153 14 29 25 58
25 65 0 7 7 22 15 34 l15 22 113 -40 c61 -21 122 -39 134 -39z m794 0 c15 -9
19 -22 19 -68 0 -31 7 -86 14 -122 21 -101 38 -249 32 -275 -7 -29 -11 -30
-166 -51 -149 -21 -492 -23 -516 -3 -10 8 -14 38 -14 118 0 124 19 351 32 367
5 7 79 14 196 19 156 6 342 18 375 24 5 0 17 -4 28 -9z m-1830 -147 c14 -16
42 -51 62 -79 20 -28 63 -71 94 -94 32 -24 74 -58 94 -77 20 -19 68 -46 110
-63 88 -34 115 -62 99 -104 -15 -39 -40 -166 -40 -201 0 -38 -25 -75 -51 -75
-11 0 -38 17 -62 39 -23 21 -85 70 -137 109 -52 38 -116 92 -141 119 -106 111
-219 245 -219 258 0 8 13 29 28 47 16 18 40 54 55 80 42 73 69 83 108 41z
m2731 -286 c19 -27 66 -139 79 -187 6 -19 26 -65 45 -103 40 -76 47 -125 19
-141 -10 -6 -31 -22 -47 -35 -32 -26 -215 -106 -358 -157 -54 -19 -142 -40
-205 -49 -109 -15 -110 -15 -127 6 -10 12 -18 33 -18 46 0 45 -50 277 -66 305
-8 15 -17 49 -20 75 -8 69 6 82 96 94 98 13 242 53 333 91 193 81 246 92 269
55z m-2019 -148 c122 -35 140 -39 204 -39 62 0 180 -24 197 -41 5 -4 13 -59
17 -121 5 -62 16 -162 25 -221 16 -96 16 -109 2 -123 -13 -13 -23 -12 -93 11
-42 14 -86 25 -96 25 -28 0 -217 63 -354 119 l-120 48 -3 37 c-4 41 36 217 69
304 11 29 54 29 152 1z m1211 -71 c28 -46 102 -351 109 -453 2 -29 1 -30 -58
-38 -33 -4 -201 -9 -374 -10 -270 -2 -315 0 -321 13 -5 8 -18 68 -30 133 -27
146 -38 311 -22 330 9 10 64 16 224 22 117 4 240 11 273 15 33 4 88 8 122 9
55 1 64 -2 77 -21z"/>
<path d="M10384 11906 c-10 -8 -15 -18 -11 -22 4 -4 15 0 24 9 22 21 12 31
-13 13z"/>
<path d="M12997 9954 c-15 -15 -7 -45 11 -42 9 2 17 12 17 22 0 20 -16 31 -28
20z"/>
<path d="M14306 8551 c-4 -7 -5 -15 -2 -18 9 -9 19 4 14 18 -4 11 -6 11 -12 0z"/>
<path d="M13750 5950 c0 -13 28 -25 38 -16 3 4 0 11 -8 16 -20 13 -30 12 -30
0z"/>
</g>
</svg>
